<svg width="100%" height="100%" viewBox="0 0 400 200" fill="none" xmlns="http://www.w3.org/2000/svg"><rect x="160" y="20" width="80" height="50" stroke="white" stroke-width="2"></rect><line x1="160" y1="35" x2="240" y2="35" stroke="white" stroke-width="1"></line><line x1="160" y1="50" x2="240" y2="50" stroke="white" stroke-width="1"></line><line x1="200" y1="70" x2="200" y2="90" stroke="white" stroke-width="2"></line><line x1="100" y1="90" x2="300" y2="90" stroke="white" stroke-width="2"></line><line x1="100" y1="90" x2="100" y2="110" stroke="white" stroke-width="2"></line><line x1="300" y1="90" x2="300" y2="110" stroke="white" stroke-width="2"></line><line x1="200" y1="90" x2="200" y2="110" stroke="white" stroke-width="2"></line><rect x="60" y="110" width="80" height="60" stroke="white" stroke-width="2"></rect><rect x="160" y="110" width="80" height="60" stroke="white" stroke-width="2"></rect><rect x="260" y="110" width="80" height="60" stroke="white" stroke-width="2"></rect><line x1="60" y1="125" x2="140" y2="125" stroke="white" stroke-width="1"></line><line x1="160" y1="125" x2="240" y2="125" stroke="white" stroke-width="1"></line><line x1="260" y1="125" x2="340" y2="125" stroke="white" stroke-width="1"></line><g transform="translate(15, 30) rotate(-5)"><rect width="35" height="35" fill="#00bcd4" rx="1"></rect><line x1="5" y1="10" x2="30" y2="10" stroke="rgba(0,0,0,0.3)" stroke-width="2"></line><line x1="5" y1="20" x2="30" y2="20" stroke="rgba(0,0,0,0.3)" stroke-width="2"></line></g><g transform="translate(45, 75) rotate(3)"><rect width="35" height="35" fill="#ffeb3b" rx="1"></rect><line x1="5" y1="10" x2="30" y2="10" stroke="rgba(0,0,0,0.3)" stroke-width="2"></line><line x1="5" y1="20" x2="25" y2="20" stroke="rgba(0,0,0,0.3)" stroke-width="2"></line></g><g transform="translate(10, 115) rotate(-2)"><rect width="35" height="35" fill="#ffeb3b" rx="1"></rect><line x1="5" y1="10" x2="30" y2="10" stroke="rgba(0,0,0,0.3)" stroke-width="2"></line><line x1="5" y1="20" x2="30" y2="20" stroke="rgba(0,0,0,0.3)" stroke-width="2"></line></g></svg>